<svg xmlns="http://www.w3.org/2000/svg" viewBox="0 0 512 512">
  <defs>
    <linearGradient id="bg" x1="84" x2="428" y1="52" y2="460" gradientUnits="userSpaceOnUse">
      <stop stop-color="#102c73" />
      <stop offset="1" stop-color="#081a46" />
    </linearGradient>
    <linearGradient id="drop" x1="236" x2="290" y1="160" y2="396" gradientUnits="userSpaceOnUse">
      <stop stop-color="#77d5ff" />
      <stop offset="0.48" stop-color="#2c86ff" />
      <stop offset="1" stop-color="#1550ea" />
    </linearGradient>
  </defs>
  <rect width="512" height="512" rx="118" fill="url(#bg)" />
  <g fill="#f8fbff">
    <path fill-rule="evenodd" d="M177 81c77.872 0 141 63.128 141 141s-63.128 141-141 141S36 299.872 36 222 99.128 81 177 81Zm0 49c-50.81 0-92 41.19-92 92s41.19 92 92 92 92-41.19 92-92-41.19-92-92-92Z" />
    <path fill-rule="evenodd" d="M279 94h56c78.977 0 143 64.023 143 143S413.977 380 335 380h-56V94Zm49 49v188h7c51.915 0 94-42.085 94-94s-42.085-94-94-94h-7Z" />
  </g>
  <path d="M256 146c-17 34-32 58-45 79-18 29-30 53-30 86 0 56 35 95 75 95s75-39 75-95c0-33-12-57-30-86-13-21-28-45-45-79Z" fill="url(#drop)" />
  <path d="M278 192c14 20 23 40 23 67 0 25-9 46-24 63 32-11 54-43 54-82 0-33-12-57-30-86-13-21-28-45-45-79-2 3-3 6-4 9 10 30 18 46 26 58Z" fill="#ffffff" opacity="0.18" />
</svg>
