<svg xmlns="http://www.w3.org/2000/svg" viewBox="0 0 512 512">
  <rect width="512" height="512" rx="112" fill="#092055" />
  <path d="M256 76c-58 88-86 140-86 190 0 56 38 98 86 98s86-42 86-98c0-50-28-102-86-190Z" fill="#48b8ff" />
  <path d="M116 350c42-22 80-33 116-33 37 0 73 11 108 33 22 14 46 22 72 24v42c-34-2-65-12-93-29-27-17-56-25-87-25-32 0-65 9-99 28-11 6-24 12-37 17v-45c7-3 14-7 20-12Z" fill="#ffffff" opacity="0.92" />
  <ellipse cx="256" cy="352" rx="116" ry="25" fill="none" stroke="#b8e8ff" stroke-width="16" />
</svg>
