<svg xmlns="http://www.w3.org/2000/svg" viewBox="0 0 512 512">
  <defs>
    <linearGradient id="bg-maskable" x1="70" x2="440" y1="52" y2="460" gradientUnits="userSpaceOnUse">
      <stop stop-color="#11307a" />
      <stop offset="1" stop-color="#081a46" />
    </linearGradient>
    <linearGradient id="drop-maskable" x1="235" x2="289" y1="168" y2="392" gradientUnits="userSpaceOnUse">
      <stop stop-color="#7ad7ff" />
      <stop offset="0.48" stop-color="#3190ff" />
      <stop offset="1" stop-color="#1652eb" />
    </linearGradient>
  </defs>
  <rect width="512" height="512" fill="url(#bg-maskable)" />
  <g transform="translate(0 8)">
    <g fill="#f8fbff">
      <path fill-rule="evenodd" d="M177 95c70.14 0 127 56.86 127 127s-56.86 127-127 127S50 292.14 50 222 106.86 95 177 95Zm0 44c-45.84 0-83 37.16-83 83s37.16 83 83 83 83-37.16 83-83-37.16-83-83-83Z" />
      <path fill-rule="evenodd" d="M289 107h48c71.797 0 130 58.203 130 130S408.797 367 337 367h-48V107Zm44 44v172h4c47.496 0 86-38.504 86-86s-38.504-86-86-86h-4Z" />
    </g>
    <path d="M256 156c-16 31-30 53-42 72-18 29-31 51-31 83 0 54 33 91 73 91s73-37 73-91c0-32-13-54-31-83-12-19-26-41-42-72Z" fill="url(#drop-maskable)" />
    <path d="M278 197c14 19 23 39 23 65 0 24-8 44-23 60 31-11 51-41 51-77 0-32-13-54-31-83-12-19-26-41-42-72-2 3-3 6-4 9 10 26 16 42 26 55Z" fill="#ffffff" opacity="0.18" />
  </g>
</svg>
